# Blender v2.82 (sub 7) OBJ File: 'Pawn.blend'
# www.blender.org
mtllib Piece.mtl
o Pawn_Pawn.001
v -11.120000 0.000000 9.440000
v -11.120000 5.146053 9.440000
v -11.120000 0.000000 -9.440000
v -11.120000 5.146053 -9.440000
v 4.854689 0.000000 7.407706
v 4.854689 0.000000 -7.407706
v 4.854689 2.186071 -7.407706
v 4.854689 2.186071 7.407706
v 11.120000 1.011745 0.000000
v 11.120000 0.000000 0.000000
vt 0.714775 0.952640
vt 0.429551 0.952640
vt 0.429551 0.476320
vt 0.714775 0.476320
vt 1.000000 0.822275
vt 0.714776 0.822275
vt 0.878835 0.476320
vt 1.000000 0.476320
vt 0.406390 0.769929
vt 0.285225 0.769929
vt 0.350313 0.539857
vt 0.406390 0.539857
vt 0.285225 0.885812
vt 0.164060 0.885812
vt 0.000000 0.539857
vt 0.285225 0.539857
vt 0.859102 0.476320
vt 0.550561 0.425048
vt 0.429551 0.238160
vt 0.550561 0.051272
vt 0.859101 0.000000
vt 0.383313 0.152363
vt 0.429551 0.539857
vt 0.046238 0.152364
vt 0.214775 0.000000
vt 0.341302 0.769929
vt 0.406390 1.000000
vt 0.285225 1.000000
vt 0.285225 0.769929
vn -1.0000 0.0000 0.0000
vn 0.1262 0.0000 -0.9920
vn 0.7635 0.0000 -0.6458
vn 0.1262 0.0000 0.9920
vn 0.0000 -1.0000 0.0000
vn 0.1825 0.9832 -0.0000
vn 0.7635 0.0000 0.6458
usemtl (null)
s off
f 1/1/1 2/2/1 4/3/1 3/4/1
f 3/5/2 4/6/2 7/7/2 6/8/2
f 6/9/3 7/10/3 9/11/3 10/12/3
f 5/13/4 8/14/4 2/15/4 1/16/4
f 3/17/5 6/18/5 10/19/5 5/20/5 1/21/5
f 7/22/6 4/23/6 2/15/6 8/24/6 9/25/6
f 9/26/7 8/27/7 5/28/7 10/29/7
